<svg width="16" height="16" viewBox="0 0 16 16" fill="none" xmlns="http://www.w3.org/2000/svg">
<path d="M14.5369 6.69433H13.9999V6.66667H7.99992V9.33333H11.7676C11.2179 10.8857 9.74092 12 7.99992 12C5.79092 12 3.99992 10.209 3.99992 8C3.99992 5.791 5.79092 4 7.99992 4C9.01958 4 9.94725 4.38467 10.6536 5.013L12.5393 3.12733C11.3486 2.01767 9.75592 1.33333 7.99992 1.33333C4.31825 1.33333 1.33325 4.31833 1.33325 8C1.33325 11.6817 4.31825 14.6667 7.99992 14.6667C11.6816 14.6667 14.6666 11.6817 14.6666 8C14.6666 7.553 14.6206 7.11666 14.5369 6.69433Z" fill="#FFC107"/>
<path d="M2.10205 4.897L4.29238 6.50333C4.88505 5.036 6.32038 4 8.00005 4C9.01972 4 9.94738 4.38467 10.6537 5.013L12.5394 3.12733C11.3487 2.01767 9.75605 1.33333 8.00005 1.33333C5.43938 1.33333 3.21872 2.779 2.10205 4.897Z" fill="#FF3D00"/>
<path d="M7.99994 14.6667C9.72194 14.6667 11.2866 14.0077 12.4696 12.936L10.4063 11.19C9.71446 11.7161 8.86909 12.0007 7.99994 12C6.26594 12 4.79361 10.8943 4.23894 9.35133L2.06494 11.0263C3.16827 13.1853 5.40894 14.6667 7.99994 14.6667Z" fill="#4CAF50"/>
<path d="M14.537 6.69433H14V6.66667H8V9.33333H11.7677C11.5047 10.0721 11.0311 10.7177 10.4053 11.1903L10.4063 11.1897L12.4697 12.9357C12.3237 13.0683 14.6667 11.3333 14.6667 8C14.6667 7.553 14.6207 7.11667 14.537 6.69433Z" fill="#1976D2"/>
</svg>
